<mxfile host="app.diagrams.net" modified="2023-10-02T11:57:18.741Z" agent="Mozilla/5.0 (X11; Linux x86_64) AppleWebKit/537.36 (KHTML, like Gecko) Chrome/117.0.0.0 Safari/537.36" version="21.5.2" etag="W1flKS3ZFOHLCCZ8IFhT" type="device">
  <diagram id="d7I-zBPAM5WEzvyh75w1" name="Страница 1">
    <mxGraphModel dx="1434" dy="771" grid="0" gridSize="10" guides="1" tooltips="1" connect="1" arrows="1" fold="1" page="1" pageScale="1" pageWidth="1654" pageHeight="1169" background="none" math="1" shadow="0">
      <root>
        <mxCell id="0" />
        <mxCell id="1" parent="0" />
        <mxCell id="QvEotVwJFfoYaIs1hEDY-12" value="Модуль добавления материалов техучебы" style="swimlane;whiteSpace=wrap;html=1;startSize=30;fontStyle=0" parent="1" vertex="1">
          <mxGeometry y="20" width="161" height="200" as="geometry" />
        </mxCell>
        <mxCell id="QvEotVwJFfoYaIs1hEDY-7" value="List" style="swimlane;fontStyle=0;childLayout=stackLayout;horizontal=1;startSize=30;horizontalStack=0;resizeParent=1;resizeParentMax=0;resizeLast=0;collapsible=1;marginBottom=0;whiteSpace=wrap;html=1;" parent="QvEotVwJFfoYaIs1hEDY-12" vertex="1">
          <mxGeometry x="30" y="40" width="80" height="120" as="geometry" />
        </mxCell>
        <mxCell id="QvEotVwJFfoYaIs1hEDY-8" value="Item 1" style="text;strokeColor=none;fillColor=none;align=left;verticalAlign=middle;spacingLeft=4;spacingRight=4;overflow=hidden;points=[[0,0.5],[1,0.5]];portConstraint=eastwest;rotatable=0;whiteSpace=wrap;html=1;" parent="QvEotVwJFfoYaIs1hEDY-7" vertex="1">
          <mxGeometry y="30" width="80" height="30" as="geometry" />
        </mxCell>
        <mxCell id="QvEotVwJFfoYaIs1hEDY-9" value="Item 2" style="text;strokeColor=none;fillColor=none;align=left;verticalAlign=middle;spacingLeft=4;spacingRight=4;overflow=hidden;points=[[0,0.5],[1,0.5]];portConstraint=eastwest;rotatable=0;whiteSpace=wrap;html=1;" parent="QvEotVwJFfoYaIs1hEDY-7" vertex="1">
          <mxGeometry y="60" width="80" height="30" as="geometry" />
        </mxCell>
        <mxCell id="QvEotVwJFfoYaIs1hEDY-10" value="Item 3" style="text;strokeColor=none;fillColor=none;align=left;verticalAlign=middle;spacingLeft=4;spacingRight=4;overflow=hidden;points=[[0,0.5],[1,0.5]];portConstraint=eastwest;rotatable=0;whiteSpace=wrap;html=1;" parent="QvEotVwJFfoYaIs1hEDY-7" vertex="1">
          <mxGeometry y="90" width="80" height="30" as="geometry" />
        </mxCell>
        <mxCell id="QvEotVwJFfoYaIs1hEDY-13" value="Модуль добавления(создания) тестов" style="swimlane;whiteSpace=wrap;html=1;startSize=30;" parent="1" vertex="1">
          <mxGeometry x="223" y="20" width="597" height="476" as="geometry" />
        </mxCell>
        <mxCell id="QvEotVwJFfoYaIs1hEDY-14" value="Tests" style="swimlane;fontStyle=0;childLayout=stackLayout;horizontal=1;startSize=30;horizontalStack=0;resizeParent=1;resizeParentMax=0;resizeLast=0;collapsible=1;marginBottom=0;whiteSpace=wrap;html=1;" parent="QvEotVwJFfoYaIs1hEDY-13" vertex="1">
          <mxGeometry x="9" y="43" width="137" height="270" as="geometry" />
        </mxCell>
        <mxCell id="QvEotVwJFfoYaIs1hEDY-15" value="id" style="text;strokeColor=none;fillColor=none;align=left;verticalAlign=middle;spacingLeft=4;spacingRight=4;overflow=hidden;points=[[0,0.5],[1,0.5]];portConstraint=eastwest;rotatable=0;whiteSpace=wrap;html=1;" parent="QvEotVwJFfoYaIs1hEDY-14" vertex="1">
          <mxGeometry y="30" width="137" height="30" as="geometry" />
        </mxCell>
        <mxCell id="QvEotVwJFfoYaIs1hEDY-16" value="authorId" style="text;strokeColor=none;fillColor=none;align=left;verticalAlign=middle;spacingLeft=4;spacingRight=4;overflow=hidden;points=[[0,0.5],[1,0.5]];portConstraint=eastwest;rotatable=0;whiteSpace=wrap;html=1;" parent="QvEotVwJFfoYaIs1hEDY-14" vertex="1">
          <mxGeometry y="60" width="137" height="30" as="geometry" />
        </mxCell>
        <mxCell id="QvEotVwJFfoYaIs1hEDY-17" value="testName" style="text;strokeColor=none;fillColor=none;align=left;verticalAlign=middle;spacingLeft=4;spacingRight=4;overflow=hidden;points=[[0,0.5],[1,0.5]];portConstraint=eastwest;rotatable=0;whiteSpace=wrap;html=1;" parent="QvEotVwJFfoYaIs1hEDY-14" vertex="1">
          <mxGeometry y="90" width="137" height="30" as="geometry" />
        </mxCell>
        <mxCell id="QvEotVwJFfoYaIs1hEDY-50" value="description" style="text;strokeColor=none;fillColor=none;align=left;verticalAlign=middle;spacingLeft=4;spacingRight=4;overflow=hidden;points=[[0,0.5],[1,0.5]];portConstraint=eastwest;rotatable=0;whiteSpace=wrap;html=1;" parent="QvEotVwJFfoYaIs1hEDY-14" vertex="1">
          <mxGeometry y="120" width="137" height="30" as="geometry" />
        </mxCell>
        <mxCell id="QvEotVwJFfoYaIs1hEDY-51" value="timeOfTest ?" style="text;strokeColor=none;fillColor=none;align=left;verticalAlign=middle;spacingLeft=4;spacingRight=4;overflow=hidden;points=[[0,0.5],[1,0.5]];portConstraint=eastwest;rotatable=0;whiteSpace=wrap;html=1;" parent="QvEotVwJFfoYaIs1hEDY-14" vertex="1">
          <mxGeometry y="150" width="137" height="30" as="geometry" />
        </mxCell>
        <mxCell id="10" value="numberOfQuestionsFor Test" style="text;strokeColor=none;fillColor=none;align=left;verticalAlign=middle;spacingLeft=4;spacingRight=4;overflow=hidden;points=[[0,0.5],[1,0.5]];portConstraint=eastwest;rotatable=0;whiteSpace=wrap;html=1;" parent="QvEotVwJFfoYaIs1hEDY-14" vertex="1">
          <mxGeometry y="180" width="137" height="30" as="geometry" />
        </mxCell>
        <mxCell id="QvEotVwJFfoYaIs1hEDY-52" value="isRandomQuestions" style="text;strokeColor=none;fillColor=none;align=left;verticalAlign=middle;spacingLeft=4;spacingRight=4;overflow=hidden;points=[[0,0.5],[1,0.5]];portConstraint=eastwest;rotatable=0;whiteSpace=wrap;html=1;" parent="QvEotVwJFfoYaIs1hEDY-14" vertex="1">
          <mxGeometry y="210" width="137" height="30" as="geometry" />
        </mxCell>
        <mxCell id="2" value="isPublished" style="text;strokeColor=none;fillColor=none;align=left;verticalAlign=middle;spacingLeft=4;spacingRight=4;overflow=hidden;points=[[0,0.5],[1,0.5]];portConstraint=eastwest;rotatable=0;whiteSpace=wrap;html=1;" parent="QvEotVwJFfoYaIs1hEDY-14" vertex="1">
          <mxGeometry y="240" width="137" height="30" as="geometry" />
        </mxCell>
        <mxCell id="QvEotVwJFfoYaIs1hEDY-53" value="Questions" style="swimlane;fontStyle=0;childLayout=stackLayout;horizontal=1;startSize=30;horizontalStack=0;resizeParent=1;resizeParentMax=0;resizeLast=0;collapsible=1;marginBottom=0;whiteSpace=wrap;html=1;" parent="QvEotVwJFfoYaIs1hEDY-13" vertex="1">
          <mxGeometry x="222" y="232" width="100" height="210" as="geometry">
            <mxRectangle x="180" y="200" width="90" height="30" as="alternateBounds" />
          </mxGeometry>
        </mxCell>
        <mxCell id="QvEotVwJFfoYaIs1hEDY-54" value="id" style="text;strokeColor=none;fillColor=none;align=left;verticalAlign=middle;spacingLeft=4;spacingRight=4;overflow=hidden;points=[[0,0.5],[1,0.5]];portConstraint=eastwest;rotatable=0;whiteSpace=wrap;html=1;" parent="QvEotVwJFfoYaIs1hEDY-53" vertex="1">
          <mxGeometry y="30" width="100" height="30" as="geometry" />
        </mxCell>
        <mxCell id="QvEotVwJFfoYaIs1hEDY-55" value="idTest" style="text;strokeColor=none;fillColor=none;align=left;verticalAlign=middle;spacingLeft=4;spacingRight=4;overflow=hidden;points=[[0,0.5],[1,0.5]];portConstraint=eastwest;rotatable=0;whiteSpace=wrap;html=1;" parent="QvEotVwJFfoYaIs1hEDY-53" vertex="1">
          <mxGeometry y="60" width="100" height="30" as="geometry" />
        </mxCell>
        <mxCell id="QvEotVwJFfoYaIs1hEDY-56" value="question" style="text;strokeColor=none;fillColor=none;align=left;verticalAlign=middle;spacingLeft=4;spacingRight=4;overflow=hidden;points=[[0,0.5],[1,0.5]];portConstraint=eastwest;rotatable=0;whiteSpace=wrap;html=1;" parent="QvEotVwJFfoYaIs1hEDY-53" vertex="1">
          <mxGeometry y="90" width="100" height="30" as="geometry" />
        </mxCell>
        <mxCell id="QvEotVwJFfoYaIs1hEDY-57" value="typeOfQuestion" style="text;strokeColor=none;fillColor=none;align=left;verticalAlign=middle;spacingLeft=4;spacingRight=4;overflow=hidden;points=[[0,0.5],[1,0.5]];portConstraint=eastwest;rotatable=0;whiteSpace=wrap;html=1;" parent="QvEotVwJFfoYaIs1hEDY-53" vertex="1">
          <mxGeometry y="120" width="100" height="30" as="geometry" />
        </mxCell>
        <mxCell id="QvEotVwJFfoYaIs1hEDY-58" value="cost ?" style="text;strokeColor=none;fillColor=none;align=left;verticalAlign=middle;spacingLeft=4;spacingRight=4;overflow=hidden;points=[[0,0.5],[1,0.5]];portConstraint=eastwest;rotatable=0;whiteSpace=wrap;html=1;" parent="QvEotVwJFfoYaIs1hEDY-53" vertex="1">
          <mxGeometry y="150" width="100" height="30" as="geometry" />
        </mxCell>
        <mxCell id="QvEotVwJFfoYaIs1hEDY-59" style="text;strokeColor=none;fillColor=none;align=left;verticalAlign=middle;spacingLeft=4;spacingRight=4;overflow=hidden;points=[[0,0.5],[1,0.5]];portConstraint=eastwest;rotatable=0;whiteSpace=wrap;html=1;" parent="QvEotVwJFfoYaIs1hEDY-53" vertex="1">
          <mxGeometry y="180" width="100" height="30" as="geometry" />
        </mxCell>
        <mxCell id="QvEotVwJFfoYaIs1hEDY-67" value="" style="edgeStyle=entityRelationEdgeStyle;fontSize=12;html=1;endArrow=ERmandOne;startArrow=ERmandOne;rounded=0;" parent="QvEotVwJFfoYaIs1hEDY-13" source="QvEotVwJFfoYaIs1hEDY-57" target="QvEotVwJFfoYaIs1hEDY-61" edge="1">
          <mxGeometry width="100" height="100" relative="1" as="geometry">
            <mxPoint x="170" y="230" as="sourcePoint" />
            <mxPoint x="270" y="130" as="targetPoint" />
          </mxGeometry>
        </mxCell>
        <mxCell id="QvEotVwJFfoYaIs1hEDY-68" value="" style="edgeStyle=entityRelationEdgeStyle;fontSize=12;html=1;endArrow=ERoneToMany;rounded=0;" parent="QvEotVwJFfoYaIs1hEDY-13" source="QvEotVwJFfoYaIs1hEDY-15" target="QvEotVwJFfoYaIs1hEDY-55" edge="1">
          <mxGeometry width="100" height="100" relative="1" as="geometry">
            <mxPoint x="130" y="240" as="sourcePoint" />
            <mxPoint x="230" y="140" as="targetPoint" />
          </mxGeometry>
        </mxCell>
        <mxCell id="QvEotVwJFfoYaIs1hEDY-69" value="Answers" style="swimlane;fontStyle=0;childLayout=stackLayout;horizontal=1;startSize=25;horizontalStack=0;resizeParent=1;resizeParentMax=0;resizeLast=0;collapsible=1;marginBottom=0;whiteSpace=wrap;html=1;" parent="QvEotVwJFfoYaIs1hEDY-13" vertex="1">
          <mxGeometry x="213" y="36" width="80" height="175" as="geometry" />
        </mxCell>
        <mxCell id="QvEotVwJFfoYaIs1hEDY-70" value="id" style="text;strokeColor=none;fillColor=none;align=left;verticalAlign=middle;spacingLeft=4;spacingRight=4;overflow=hidden;points=[[0,0.5],[1,0.5]];portConstraint=eastwest;rotatable=0;whiteSpace=wrap;html=1;" parent="QvEotVwJFfoYaIs1hEDY-69" vertex="1">
          <mxGeometry y="25" width="80" height="30" as="geometry" />
        </mxCell>
        <mxCell id="QvEotVwJFfoYaIs1hEDY-71" value="idQuestion" style="text;strokeColor=none;fillColor=none;align=left;verticalAlign=middle;spacingLeft=4;spacingRight=4;overflow=hidden;points=[[0,0.5],[1,0.5]];portConstraint=eastwest;rotatable=0;whiteSpace=wrap;html=1;" parent="QvEotVwJFfoYaIs1hEDY-69" vertex="1">
          <mxGeometry y="55" width="80" height="30" as="geometry" />
        </mxCell>
        <mxCell id="QvEotVwJFfoYaIs1hEDY-72" value="answer" style="text;strokeColor=none;fillColor=none;align=left;verticalAlign=middle;spacingLeft=4;spacingRight=4;overflow=hidden;points=[[0,0.5],[1,0.5]];portConstraint=eastwest;rotatable=0;whiteSpace=wrap;html=1;" parent="QvEotVwJFfoYaIs1hEDY-69" vertex="1">
          <mxGeometry y="85" width="80" height="30" as="geometry" />
        </mxCell>
        <mxCell id="QvEotVwJFfoYaIs1hEDY-75" value="isCorrect" style="text;strokeColor=none;fillColor=none;align=left;verticalAlign=middle;spacingLeft=4;spacingRight=4;overflow=hidden;points=[[0,0.5],[1,0.5]];portConstraint=eastwest;rotatable=0;whiteSpace=wrap;html=1;" parent="QvEotVwJFfoYaIs1hEDY-69" vertex="1">
          <mxGeometry y="115" width="80" height="30" as="geometry" />
        </mxCell>
        <mxCell id="3" value="cost ?" style="text;strokeColor=none;fillColor=none;align=left;verticalAlign=middle;spacingLeft=4;spacingRight=4;overflow=hidden;points=[[0,0.5],[1,0.5]];portConstraint=eastwest;rotatable=0;whiteSpace=wrap;html=1;" parent="QvEotVwJFfoYaIs1hEDY-69" vertex="1">
          <mxGeometry y="145" width="80" height="30" as="geometry" />
        </mxCell>
        <mxCell id="QvEotVwJFfoYaIs1hEDY-73" value="" style="edgeStyle=entityRelationEdgeStyle;fontSize=12;html=1;endArrow=ERoneToMany;rounded=0;" parent="QvEotVwJFfoYaIs1hEDY-13" source="QvEotVwJFfoYaIs1hEDY-54" target="QvEotVwJFfoYaIs1hEDY-71" edge="1">
          <mxGeometry width="100" height="100" relative="1" as="geometry">
            <mxPoint x="130" y="240" as="sourcePoint" />
            <mxPoint x="311" y="88" as="targetPoint" />
          </mxGeometry>
        </mxCell>
        <mxCell id="QvEotVwJFfoYaIs1hEDY-60" value="QuestionTypes" style="swimlane;fontStyle=0;childLayout=stackLayout;horizontal=1;startSize=30;horizontalStack=0;resizeParent=1;resizeParentMax=0;resizeLast=0;collapsible=1;marginBottom=0;whiteSpace=wrap;html=1;" parent="QvEotVwJFfoYaIs1hEDY-13" vertex="1">
          <mxGeometry x="434" y="36" width="100" height="120" as="geometry">
            <mxRectangle x="360" y="40" width="107" height="30" as="alternateBounds" />
          </mxGeometry>
        </mxCell>
        <mxCell id="QvEotVwJFfoYaIs1hEDY-61" value="id" style="text;strokeColor=none;fillColor=none;align=left;verticalAlign=middle;spacingLeft=4;spacingRight=4;overflow=hidden;points=[[0,0.5],[1,0.5]];portConstraint=eastwest;rotatable=0;whiteSpace=wrap;html=1;" parent="QvEotVwJFfoYaIs1hEDY-60" vertex="1">
          <mxGeometry y="30" width="100" height="30" as="geometry" />
        </mxCell>
        <mxCell id="QvEotVwJFfoYaIs1hEDY-62" value="Name" style="text;strokeColor=none;fillColor=none;align=left;verticalAlign=middle;spacingLeft=4;spacingRight=4;overflow=hidden;points=[[0,0.5],[1,0.5]];portConstraint=eastwest;rotatable=0;whiteSpace=wrap;html=1;" parent="QvEotVwJFfoYaIs1hEDY-60" vertex="1">
          <mxGeometry y="60" width="100" height="30" as="geometry" />
        </mxCell>
        <mxCell id="QvEotVwJFfoYaIs1hEDY-63" value="description" style="text;strokeColor=none;fillColor=none;align=left;verticalAlign=middle;spacingLeft=4;spacingRight=4;overflow=hidden;points=[[0,0.5],[1,0.5]];portConstraint=eastwest;rotatable=0;whiteSpace=wrap;html=1;" parent="QvEotVwJFfoYaIs1hEDY-60" vertex="1">
          <mxGeometry y="90" width="100" height="30" as="geometry" />
        </mxCell>
        <object label="Модуль тестирования" id="QvEotVwJFfoYaIs1hEDY-18">
          <mxCell style="swimlane;whiteSpace=wrap;html=1;startSize=30;" parent="1" vertex="1">
            <mxGeometry x="49" y="535" width="724" height="393" as="geometry" />
          </mxCell>
        </object>
        <mxCell id="QvEotVwJFfoYaIs1hEDY-19" value="testResults" style="swimlane;fontStyle=0;childLayout=stackLayout;horizontal=1;startSize=30;horizontalStack=0;resizeParent=1;resizeParentMax=0;resizeLast=0;collapsible=1;marginBottom=0;whiteSpace=wrap;html=1;" parent="QvEotVwJFfoYaIs1hEDY-18" vertex="1">
          <mxGeometry x="56" y="61" width="156" height="190" as="geometry">
            <mxRectangle x="56" y="61" width="94" height="30" as="alternateBounds" />
          </mxGeometry>
        </mxCell>
        <mxCell id="QvEotVwJFfoYaIs1hEDY-20" value="id" style="text;strokeColor=none;fillColor=none;align=left;verticalAlign=middle;spacingLeft=4;spacingRight=4;overflow=hidden;points=[[0,0.5],[1,0.5]];portConstraint=eastwest;rotatable=0;whiteSpace=wrap;html=1;" parent="QvEotVwJFfoYaIs1hEDY-19" vertex="1">
          <mxGeometry y="30" width="156" height="20" as="geometry" />
        </mxCell>
        <mxCell id="QvEotVwJFfoYaIs1hEDY-21" value="idUser" style="text;strokeColor=none;fillColor=none;align=left;verticalAlign=middle;spacingLeft=4;spacingRight=4;overflow=hidden;points=[[0,0.5],[1,0.5]];portConstraint=eastwest;rotatable=0;whiteSpace=wrap;html=1;" parent="QvEotVwJFfoYaIs1hEDY-19" vertex="1">
          <mxGeometry y="50" width="156" height="30" as="geometry" />
        </mxCell>
        <mxCell id="QvEotVwJFfoYaIs1hEDY-22" value="idTest" style="text;strokeColor=none;fillColor=none;align=left;verticalAlign=middle;spacingLeft=4;spacingRight=4;overflow=hidden;points=[[0,0.5],[1,0.5]];portConstraint=eastwest;rotatable=0;whiteSpace=wrap;html=1;" parent="QvEotVwJFfoYaIs1hEDY-19" vertex="1">
          <mxGeometry y="80" width="156" height="30" as="geometry" />
        </mxCell>
        <mxCell id="TU-xIh42okdCrJfTeSIp-10" value="questionsForTest(JSON)" style="text;strokeColor=none;fillColor=none;align=left;verticalAlign=middle;spacingLeft=4;spacingRight=4;overflow=hidden;points=[[0,0.5],[1,0.5]];portConstraint=eastwest;rotatable=0;whiteSpace=wrap;html=1;" vertex="1" parent="QvEotVwJFfoYaIs1hEDY-19">
          <mxGeometry y="110" width="156" height="30" as="geometry" />
        </mxCell>
        <mxCell id="TU-xIh42okdCrJfTeSIp-11" value="answersForTest(JSON)" style="text;strokeColor=none;fillColor=none;align=left;verticalAlign=middle;spacingLeft=4;spacingRight=4;overflow=hidden;points=[[0,0.5],[1,0.5]];portConstraint=eastwest;rotatable=0;whiteSpace=wrap;html=1;" vertex="1" parent="QvEotVwJFfoYaIs1hEDY-19">
          <mxGeometry y="140" width="156" height="25" as="geometry" />
        </mxCell>
        <mxCell id="TU-xIh42okdCrJfTeSIp-20" value="userAnswers(JSON)" style="text;strokeColor=none;fillColor=none;align=left;verticalAlign=middle;spacingLeft=4;spacingRight=4;overflow=hidden;points=[[0,0.5],[1,0.5]];portConstraint=eastwest;rotatable=0;whiteSpace=wrap;html=1;" vertex="1" parent="QvEotVwJFfoYaIs1hEDY-19">
          <mxGeometry y="165" width="156" height="25" as="geometry" />
        </mxCell>
        <mxCell id="TU-xIh42okdCrJfTeSIp-13" style="edgeStyle=orthogonalEdgeStyle;rounded=0;orthogonalLoop=1;jettySize=auto;html=1;exitX=1;exitY=0.5;exitDx=0;exitDy=0;" edge="1" parent="QvEotVwJFfoYaIs1hEDY-18" target="QvEotVwJFfoYaIs1hEDY-25">
          <mxGeometry relative="1" as="geometry">
            <mxPoint x="215" y="119" as="sourcePoint" />
            <mxPoint x="841" y="-383" as="targetPoint" />
            <Array as="points">
              <mxPoint x="215" y="120" />
              <mxPoint x="842" y="120" />
              <mxPoint x="842" y="-236" />
            </Array>
          </mxGeometry>
        </mxCell>
        <mxCell id="TU-xIh42okdCrJfTeSIp-27" value="userAnswers&lt;br&gt;userAnswer{question:idQuestion, answers:[idAnswer1,idAnswer...]}" style="text;html=1;strokeColor=none;fillColor=none;align=center;verticalAlign=middle;whiteSpace=wrap;rounded=0;" vertex="1" parent="QvEotVwJFfoYaIs1hEDY-18">
          <mxGeometry x="334" y="272" width="227" height="123" as="geometry" />
        </mxCell>
        <mxCell id="QvEotVwJFfoYaIs1hEDY-23" value="Модуль регистрации, администрирования пользователей" style="swimlane;whiteSpace=wrap;html=1;startSize=30;" parent="1" vertex="1">
          <mxGeometry x="922" y="160" width="380" height="588" as="geometry" />
        </mxCell>
        <mxCell id="QvEotVwJFfoYaIs1hEDY-24" value="Users" style="swimlane;fontStyle=0;childLayout=stackLayout;horizontal=1;startSize=30;horizontalStack=0;resizeParent=1;resizeParentMax=0;resizeLast=0;collapsible=1;marginBottom=0;whiteSpace=wrap;html=1;" parent="QvEotVwJFfoYaIs1hEDY-23" vertex="1">
          <mxGeometry x="30" y="40" width="103" height="230" as="geometry" />
        </mxCell>
        <mxCell id="QvEotVwJFfoYaIs1hEDY-25" value="id" style="text;strokeColor=none;fillColor=none;align=left;verticalAlign=middle;spacingLeft=4;spacingRight=4;overflow=hidden;points=[[0,0.5],[1,0.5]];portConstraint=eastwest;rotatable=0;whiteSpace=wrap;html=1;" parent="QvEotVwJFfoYaIs1hEDY-24" vertex="1">
          <mxGeometry y="30" width="103" height="30" as="geometry" />
        </mxCell>
        <mxCell id="8" value="password" style="text;strokeColor=none;fillColor=none;align=left;verticalAlign=middle;spacingLeft=4;spacingRight=4;overflow=hidden;points=[[0,0.5],[1,0.5]];portConstraint=eastwest;rotatable=0;whiteSpace=wrap;html=1;" parent="QvEotVwJFfoYaIs1hEDY-24" vertex="1">
          <mxGeometry y="60" width="103" height="30" as="geometry" />
        </mxCell>
        <mxCell id="9" value="email" style="text;strokeColor=none;fillColor=none;align=left;verticalAlign=middle;spacingLeft=4;spacingRight=4;overflow=hidden;points=[[0,0.5],[1,0.5]];portConstraint=eastwest;rotatable=0;whiteSpace=wrap;html=1;" parent="QvEotVwJFfoYaIs1hEDY-24" vertex="1">
          <mxGeometry y="90" width="103" height="30" as="geometry" />
        </mxCell>
        <mxCell id="QvEotVwJFfoYaIs1hEDY-26" value="fio" style="text;strokeColor=none;fillColor=none;align=left;verticalAlign=middle;spacingLeft=4;spacingRight=4;overflow=hidden;points=[[0,0.5],[1,0.5]];portConstraint=eastwest;rotatable=0;whiteSpace=wrap;html=1;" parent="QvEotVwJFfoYaIs1hEDY-24" vertex="1">
          <mxGeometry y="120" width="103" height="30" as="geometry" />
        </mxCell>
        <mxCell id="QvEotVwJFfoYaIs1hEDY-39" value="idDepartment" style="text;strokeColor=none;fillColor=none;align=left;verticalAlign=middle;spacingLeft=4;spacingRight=4;overflow=hidden;points=[[0,0.5],[1,0.5]];portConstraint=eastwest;rotatable=0;whiteSpace=wrap;html=1;" parent="QvEotVwJFfoYaIs1hEDY-24" vertex="1">
          <mxGeometry y="150" width="103" height="30" as="geometry" />
        </mxCell>
        <mxCell id="6" value="dateRegistration" style="text;strokeColor=none;fillColor=none;align=left;verticalAlign=middle;spacingLeft=4;spacingRight=4;overflow=hidden;points=[[0,0.5],[1,0.5]];portConstraint=eastwest;rotatable=0;whiteSpace=wrap;html=1;" parent="QvEotVwJFfoYaIs1hEDY-24" vertex="1">
          <mxGeometry y="180" width="103" height="25" as="geometry" />
        </mxCell>
        <mxCell id="QvEotVwJFfoYaIs1hEDY-48" value="roles" style="text;strokeColor=none;fillColor=none;align=left;verticalAlign=middle;spacingLeft=4;spacingRight=4;overflow=hidden;points=[[0,0.5],[1,0.5]];portConstraint=eastwest;rotatable=0;whiteSpace=wrap;html=1;" parent="QvEotVwJFfoYaIs1hEDY-24" vertex="1">
          <mxGeometry y="205" width="103" height="25" as="geometry" />
        </mxCell>
        <mxCell id="QvEotVwJFfoYaIs1hEDY-28" value="Departments" style="swimlane;fontStyle=0;childLayout=stackLayout;horizontal=1;startSize=30;horizontalStack=0;resizeParent=1;resizeParentMax=0;resizeLast=0;collapsible=1;marginBottom=0;whiteSpace=wrap;html=1;" parent="QvEotVwJFfoYaIs1hEDY-23" vertex="1">
          <mxGeometry x="190" y="40" width="90" height="120" as="geometry">
            <mxRectangle x="120" y="40" width="130" height="30" as="alternateBounds" />
          </mxGeometry>
        </mxCell>
        <mxCell id="QvEotVwJFfoYaIs1hEDY-29" value="id" style="text;strokeColor=none;fillColor=none;align=left;verticalAlign=middle;spacingLeft=4;spacingRight=4;overflow=hidden;points=[[0,0.5],[1,0.5]];portConstraint=eastwest;rotatable=0;whiteSpace=wrap;html=1;" parent="QvEotVwJFfoYaIs1hEDY-28" vertex="1">
          <mxGeometry y="30" width="90" height="30" as="geometry" />
        </mxCell>
        <mxCell id="QvEotVwJFfoYaIs1hEDY-30" value="name" style="text;strokeColor=none;fillColor=none;align=left;verticalAlign=middle;spacingLeft=4;spacingRight=4;overflow=hidden;points=[[0,0.5],[1,0.5]];portConstraint=eastwest;rotatable=0;whiteSpace=wrap;html=1;" parent="QvEotVwJFfoYaIs1hEDY-28" vertex="1">
          <mxGeometry y="60" width="90" height="30" as="geometry" />
        </mxCell>
        <mxCell id="QvEotVwJFfoYaIs1hEDY-38" value="comment" style="text;strokeColor=none;fillColor=none;align=left;verticalAlign=middle;spacingLeft=4;spacingRight=4;overflow=hidden;points=[[0,0.5],[1,0.5]];portConstraint=eastwest;rotatable=0;whiteSpace=wrap;html=1;" parent="QvEotVwJFfoYaIs1hEDY-28" vertex="1">
          <mxGeometry y="90" width="90" height="30" as="geometry" />
        </mxCell>
        <mxCell id="QvEotVwJFfoYaIs1hEDY-41" value="" style="edgeStyle=entityRelationEdgeStyle;fontSize=12;html=1;endArrow=ERoneToMany;rounded=0;" parent="QvEotVwJFfoYaIs1hEDY-23" source="QvEotVwJFfoYaIs1hEDY-29" target="QvEotVwJFfoYaIs1hEDY-39" edge="1">
          <mxGeometry width="100" height="100" relative="1" as="geometry">
            <mxPoint x="140" y="180" as="sourcePoint" />
            <mxPoint x="240" y="80" as="targetPoint" />
          </mxGeometry>
        </mxCell>
        <mxCell id="QvEotVwJFfoYaIs1hEDY-49" value="" style="edgeStyle=entityRelationEdgeStyle;fontSize=12;html=1;endArrow=ERmany;startArrow=ERmany;rounded=0;" parent="QvEotVwJFfoYaIs1hEDY-23" source="QvEotVwJFfoYaIs1hEDY-48" target="QvEotVwJFfoYaIs1hEDY-44" edge="1">
          <mxGeometry width="100" height="100" relative="1" as="geometry">
            <mxPoint x="130" y="170" as="sourcePoint" />
            <mxPoint x="230" y="70" as="targetPoint" />
          </mxGeometry>
        </mxCell>
        <mxCell id="QvEotVwJFfoYaIs1hEDY-43" value="Roles" style="swimlane;fontStyle=0;childLayout=stackLayout;horizontal=1;startSize=30;horizontalStack=0;resizeParent=1;resizeParentMax=0;resizeLast=0;collapsible=1;marginBottom=0;whiteSpace=wrap;html=1;" parent="QvEotVwJFfoYaIs1hEDY-23" vertex="1">
          <mxGeometry x="198.5" y="267" width="73" height="120" as="geometry">
            <mxRectangle x="120" y="40" width="130" height="30" as="alternateBounds" />
          </mxGeometry>
        </mxCell>
        <mxCell id="QvEotVwJFfoYaIs1hEDY-44" value="id" style="text;strokeColor=none;fillColor=none;align=left;verticalAlign=middle;spacingLeft=4;spacingRight=4;overflow=hidden;points=[[0,0.5],[1,0.5]];portConstraint=eastwest;rotatable=0;whiteSpace=wrap;html=1;" parent="QvEotVwJFfoYaIs1hEDY-43" vertex="1">
          <mxGeometry y="30" width="73" height="30" as="geometry" />
        </mxCell>
        <mxCell id="QvEotVwJFfoYaIs1hEDY-45" value="Name" style="text;strokeColor=none;fillColor=none;align=left;verticalAlign=middle;spacingLeft=4;spacingRight=4;overflow=hidden;points=[[0,0.5],[1,0.5]];portConstraint=eastwest;rotatable=0;whiteSpace=wrap;html=1;" parent="QvEotVwJFfoYaIs1hEDY-43" vertex="1">
          <mxGeometry y="60" width="73" height="30" as="geometry" />
        </mxCell>
        <mxCell id="QvEotVwJFfoYaIs1hEDY-46" value="Comment" style="text;strokeColor=none;fillColor=none;align=left;verticalAlign=middle;spacingLeft=4;spacingRight=4;overflow=hidden;points=[[0,0.5],[1,0.5]];portConstraint=eastwest;rotatable=0;whiteSpace=wrap;html=1;" parent="QvEotVwJFfoYaIs1hEDY-43" vertex="1">
          <mxGeometry y="90" width="73" height="30" as="geometry" />
        </mxCell>
        <mxCell id="afmKax0O3rzZeBig4FOt-10" value="" style="edgeStyle=entityRelationEdgeStyle;fontSize=12;html=1;endArrow=ERmandOne;startArrow=ERmandOne;rounded=0;" parent="1" source="QvEotVwJFfoYaIs1hEDY-16" target="QvEotVwJFfoYaIs1hEDY-25" edge="1">
          <mxGeometry width="100" height="100" relative="1" as="geometry">
            <mxPoint x="368" y="136" as="sourcePoint" />
            <mxPoint x="438" y="36" as="targetPoint" />
          </mxGeometry>
        </mxCell>
        <mxCell id="0ZQ5cbogIZvacXiDDmxe-1" value="&lt;ul&gt;&lt;li&gt;одиночный выбор&lt;/li&gt;&lt;li&gt;множественный выбор&lt;/li&gt;&lt;li&gt;указание порядка&lt;/li&gt;&lt;li&gt;сопоставление&lt;/li&gt;&lt;li&gt;ручной ввод числа&lt;/li&gt;&lt;li&gt;ручной ввод текста&lt;/li&gt;&lt;/ul&gt;" style="text;strokeColor=none;fillColor=none;html=1;whiteSpace=wrap;verticalAlign=middle;overflow=hidden;" parent="1" vertex="1">
          <mxGeometry x="1248" y="181" width="170" height="120" as="geometry" />
        </mxCell>
        <mxCell id="TU-xIh42okdCrJfTeSIp-12" style="edgeStyle=orthogonalEdgeStyle;rounded=0;orthogonalLoop=1;jettySize=auto;html=1;exitX=1;exitY=0.5;exitDx=0;exitDy=0;entryX=0;entryY=0.5;entryDx=0;entryDy=0;" edge="1" parent="1" source="QvEotVwJFfoYaIs1hEDY-22" target="QvEotVwJFfoYaIs1hEDY-15">
          <mxGeometry relative="1" as="geometry" />
        </mxCell>
      </root>
    </mxGraphModel>
  </diagram>
</mxfile>
